
<svg width="300" height="128" viewBox="0 0 346 124" fill="none" xmlns="http://www.w3.org/2000/svg">
  <path d="M167.677 95.4512H161.36V104.898C161.375 105.11 161.558 105.217 161.907 105.217H162.377C162.725 105.217 162.908 105.11 162.923 104.898V100.703H165.935C166.144 100.703 166.256 100.576 166.272 100.32V100.035C166.256 99.7806 166.144 99.6528 165.935 99.6528H162.923V96.6039H167.677C167.862 96.5903 167.953 96.4475 167.953 96.1754V95.8128C167.953 95.5853 167.862 95.4652 167.677 95.4512Z" fill="white"/>
  <path d="M174.748 101.91C174.415 103.179 173.686 103.814 172.559 103.818C171.423 103.818 170.855 103.039 170.855 101.481C170.998 99.8629 171.76 99.0312 173.135 98.9852C173.912 98.9852 174.45 99.1421 174.748 99.4553V101.91ZM173.188 97.6951C170.885 97.7856 169.616 99.053 169.382 101.495C169.382 103.977 170.473 105.217 172.655 105.217C173.629 105.126 174.326 104.769 174.748 104.148V104.898C174.765 105.11 174.945 105.217 175.296 105.217H175.766C176.114 105.217 176.296 105.11 176.311 104.898V98.8753C175.85 98.0882 174.807 97.6951 173.188 97.6951Z" fill="white"/>
  <path d="M182.029 98.95C182.846 98.95 183.436 99.2071 183.801 99.7217C183.835 99.7818 183.896 99.8108 183.98 99.8108C184.036 99.8108 184.097 99.7987 184.167 99.7759L185.057 99.4022C185.135 99.3552 185.177 99.3025 185.177 99.2381C185.177 99.1974 185.164 99.1543 185.139 99.1146C184.561 98.1784 183.524 97.6957 182.029 97.6691C179.598 97.7146 178.377 98.9713 178.367 101.441C178.377 103.882 179.598 105.125 182.029 105.171C183.524 105.143 184.561 104.662 185.139 103.725C185.164 103.683 185.177 103.643 185.177 103.601C185.177 103.539 185.135 103.484 185.057 103.437L184.167 103.064C184.097 103.04 184.036 103.029 183.98 103.029C183.896 103.029 183.835 103.059 183.801 103.118C183.436 103.63 182.846 103.887 182.029 103.887C180.703 103.887 180.021 103.073 179.982 101.441C180.021 99.7818 180.703 98.95 182.029 98.95Z" fill="white"/>
  <path d="M193.181 97.7029H192.712C192.364 97.7029 192.18 97.8104 192.166 98.0234V102.21C191.798 103.379 191.097 103.974 190.065 103.997C189.119 103.997 188.645 103.231 188.645 101.699V98.0234C188.63 97.8104 188.448 97.7029 188.1 97.7029H187.627C187.279 97.7029 187.098 97.8104 187.083 98.0234V101.726C187.083 104.039 188.08 105.197 190.074 105.197C191.009 105.197 191.707 104.886 192.166 104.263V104.898C192.18 105.111 192.364 105.217 192.712 105.217H193.181C193.533 105.217 193.713 105.111 193.729 104.898V98.0234C193.713 97.8104 193.533 97.7029 193.181 97.7029Z" fill="white"/>
  <path d="M199.237 103.764C199.231 103.764 199.226 103.768 199.215 103.771C199.09 103.817 198.893 103.84 198.625 103.84C198.022 103.84 197.721 103.531 197.721 102.912V95.0425C197.704 94.8281 197.523 94.722 197.175 94.722H196.702C196.354 94.722 196.173 94.8281 196.156 95.0425V102.987C196.201 104.461 197.023 105.196 198.616 105.196C198.88 105.196 199.117 105.174 199.326 105.128C199.518 105.088 199.618 104.813 199.634 104.303V104.27C199.634 103.933 199.501 103.764 199.237 103.764Z" fill="white"/>
  <path d="M206.205 101.91C205.872 103.178 205.14 103.814 204.014 103.818C202.877 103.818 202.311 103.039 202.311 101.481C202.454 99.8626 203.215 99.0309 204.591 98.9849C205.368 98.9849 205.906 99.1418 206.205 99.455V101.91ZM207.222 94.7218H206.751C206.401 94.7218 206.219 94.8278 206.205 95.0423V97.8594C205.762 97.749 205.24 97.6948 204.643 97.6948C202.34 97.7853 201.071 99.0527 200.837 101.495C200.837 103.977 201.93 105.217 204.112 105.217C205.084 105.125 205.782 104.769 206.205 104.148V104.897C206.219 105.11 206.401 105.217 206.751 105.217H207.222C207.569 105.217 207.752 105.11 207.766 104.897V95.0423C207.752 94.8278 207.569 94.7218 207.222 94.7218Z" fill="white"/>
  <path d="M215.362 101.91C215.029 103.179 214.298 103.814 213.172 103.818C212.036 103.818 211.468 103.039 211.468 101.481C211.611 99.8629 212.373 99.0312 213.748 98.9852C214.525 98.9852 215.063 99.1421 215.362 99.4553V101.91ZM213.8 97.6951C211.498 97.7856 210.23 99.053 209.996 101.495C209.996 103.977 211.087 105.217 213.27 105.217C214.241 105.126 214.939 104.769 215.362 104.148V104.898C215.377 105.11 215.559 105.217 215.909 105.217H216.38C216.727 105.217 216.91 105.11 216.923 104.898V98.8753C216.462 98.0882 215.419 97.6951 213.8 97.6951Z" fill="white"/>
  <path d="M224.215 101.91C223.881 103.178 223.151 103.814 222.024 103.818C220.89 103.818 220.32 103.039 220.32 101.481C220.464 99.8626 221.225 99.0309 222.6 98.9849C223.378 98.9849 223.917 99.1418 224.215 99.455V101.91ZM225.232 94.7218H224.759C224.412 94.7218 224.23 94.8278 224.215 95.0423V97.8594C223.772 97.749 223.251 97.6948 222.654 97.6948C220.351 97.7853 219.079 99.0527 218.849 101.495C218.849 103.977 219.94 105.217 222.122 105.217C223.093 105.125 223.791 104.769 224.215 104.148V104.897C224.23 105.11 224.412 105.217 224.759 105.217H225.232C225.581 105.217 225.763 105.11 225.777 104.897V95.0423C225.763 94.8278 225.581 94.7218 225.232 94.7218Z" fill="white"/>
  <path d="M231.673 98.8395C232.541 98.8395 233.033 99.1212 233.146 99.6799V99.7206C233.146 100.24 232.754 100.596 231.972 100.79C231.643 100.873 231.313 100.914 230.978 100.914C230.504 100.914 230.018 100.855 229.519 100.738C229.755 99.5637 230.473 98.9319 231.673 98.8395ZM234.701 103.443L233.811 103.069C233.741 103.046 233.678 103.035 233.625 103.035C233.54 103.035 233.479 103.064 233.445 103.124C233.082 103.683 232.492 103.963 231.673 103.963C230.468 103.963 229.758 103.299 229.542 101.972C230.001 102.022 230.452 102.047 230.897 102.047C233.233 101.947 234.427 101.139 234.476 99.6247C234.302 98.3616 233.393 97.7158 231.749 97.6887C229.416 97.7337 228.17 98.9658 228.01 101.384C228.022 103.868 229.242 105.132 231.673 105.176C233.17 105.148 234.205 104.667 234.784 103.731C234.808 103.69 234.822 103.649 234.822 103.608C234.822 103.545 234.781 103.49 234.701 103.443Z" fill="white"/>
  <path d="M245.527 101.91C245.193 103.178 244.462 103.814 243.336 103.818C242.2 103.818 241.632 103.039 241.632 101.481C241.778 99.8626 242.536 99.0309 243.912 98.9849C244.69 98.9849 245.229 99.1418 245.527 99.455V101.91ZM246.544 94.7218H246.072C245.723 94.7218 245.54 94.8278 245.527 95.0423V97.8594C245.082 97.749 244.563 97.6948 243.964 97.6948C241.662 97.7853 240.394 99.0527 240.159 101.495C240.159 103.977 241.249 105.217 243.433 105.217C244.406 105.125 245.103 104.769 245.527 104.148V104.897C245.54 105.11 245.723 105.217 246.072 105.217H246.544C246.891 105.217 247.074 105.11 247.088 104.897V95.0423C247.074 94.8278 246.891 94.7218 246.544 94.7218Z" fill="white"/>
  <path d="M252.99 98.8395C253.857 98.8395 254.35 99.1212 254.462 99.6799V99.7206C254.462 100.24 254.071 100.596 253.289 100.79C252.96 100.873 252.629 100.914 252.295 100.914C251.822 100.914 251.336 100.855 250.836 100.738C251.072 99.5637 251.789 98.9319 252.99 98.8395ZM256.019 103.443L255.127 103.069C255.058 103.046 254.995 103.035 254.94 103.035C254.856 103.035 254.796 103.064 254.763 103.124C254.397 103.683 253.808 103.963 252.99 103.963C251.784 103.963 251.075 103.299 250.86 101.972C251.318 102.022 251.771 102.047 252.214 102.047C254.551 101.947 255.743 101.139 255.793 99.6247C255.619 98.3616 254.709 97.7158 253.064 97.6887C250.735 97.7337 249.486 98.9658 249.326 101.384C249.337 103.868 250.558 105.132 252.99 105.176C254.486 105.148 255.522 104.667 256.1 103.731C256.125 103.69 256.139 103.649 256.139 103.608C256.139 103.545 256.097 103.49 256.019 103.443Z" fill="white"/>
  <path d="M263.917 101.699L265.451 97.6007L266.982 101.699H263.917ZM266.235 95.7253C266.189 95.6207 266.119 95.5384 266.026 95.4798C265.941 95.429 265.817 95.4043 265.659 95.4043H265.024C264.88 95.4043 264.755 95.4362 264.655 95.5002C264.551 95.5641 264.481 95.6391 264.439 95.7253L261.009 104.898C261 104.943 260.993 104.976 260.993 104.994C260.993 105.143 261.142 105.218 261.436 105.218H262.056C262.401 105.218 262.622 105.111 262.72 104.898L263.552 102.681H267.349L268.178 104.898C268.278 105.111 268.502 105.218 268.85 105.218H269.246C269.537 105.218 269.681 105.143 269.681 104.994C269.681 104.976 269.676 104.943 269.665 104.898L266.235 95.7253Z" fill="white"/>
  <path d="M279.455 97.7029C278.427 97.7029 277.648 98.1091 277.114 98.9229C276.686 98.1091 275.946 97.7029 274.893 97.7029C273.851 97.7029 273.097 98.1187 272.629 98.9495V98.0234C272.614 97.8104 272.432 97.7029 272.083 97.7029H271.611C271.263 97.7029 271.081 97.8104 271.066 98.0234V104.898C271.081 105.111 271.263 105.217 271.611 105.217H272.083C272.432 105.217 272.614 105.111 272.629 104.898V101.255C272.907 99.7546 273.526 99.0008 274.482 98.9906C275.488 98.9906 275.992 99.8223 275.992 101.482V104.898C276.007 105.111 276.189 105.217 276.539 105.217H277.009C277.359 105.217 277.541 105.111 277.555 104.898V101.44C277.704 99.8127 278.25 98.9964 279.192 98.9906C280.1 98.9906 280.553 99.8223 280.553 101.482V104.898C280.567 105.111 280.749 105.217 281.098 105.217H281.568C281.919 105.217 282.099 105.111 282.115 104.898V101.192C282.115 98.8667 281.227 97.7029 279.455 97.7029Z" fill="white"/>
  <path d="M287.848 98.8395C288.716 98.8395 289.208 99.1212 289.32 99.6799V99.7206C289.32 100.24 288.93 100.596 288.147 100.79C287.819 100.873 287.486 100.914 287.153 100.914C286.679 100.914 286.194 100.855 285.695 100.738C285.929 99.5637 286.648 98.9319 287.848 98.8395ZM290.876 103.443L289.986 103.069C289.916 103.046 289.854 103.035 289.799 103.035C289.716 103.035 289.654 103.064 289.62 103.124C289.256 103.683 288.666 103.963 287.848 103.963C286.644 103.963 285.932 103.299 285.718 101.972C286.177 102.022 286.628 102.047 287.071 102.047C289.408 101.947 290.601 101.139 290.652 99.6247C290.477 98.3616 289.568 97.7158 287.922 97.6887C285.592 97.7337 284.345 98.9658 284.185 101.384C284.196 103.868 285.417 105.132 287.848 105.176C289.343 105.148 290.38 104.667 290.958 103.731C290.984 103.69 290.996 103.649 290.996 103.608C290.996 103.545 290.955 103.49 290.876 103.443Z" fill="white"/>
  <path d="M296.853 97.6888C295.732 97.7111 294.996 98.0858 294.648 98.8134V98.0229C294.633 97.8099 294.451 97.7024 294.104 97.7024H293.609C293.259 97.7024 293.079 97.8099 293.063 98.0229V104.898C293.093 105.11 293.284 105.217 293.631 105.217H294.104C294.451 105.217 294.633 105.11 294.648 104.898V100.873C294.653 99.7681 295.191 99.1911 296.262 99.1422C296.577 99.1136 296.789 99.0003 296.898 98.8004L297.227 98.0708C297.246 98.0147 297.257 97.9677 297.257 97.928C297.257 97.7687 297.123 97.6888 296.853 97.6888Z" fill="white"/>
  <path d="M299.756 97.7029H299.285C298.935 97.7029 298.756 97.8104 298.741 98.0234V104.898C298.756 105.111 298.935 105.217 299.285 105.217H299.756C300.106 105.217 300.289 105.111 300.302 104.898V98.0234C300.289 97.8104 300.106 97.7029 299.756 97.7029Z" fill="white"/>
  <path d="M299.782 94.9821H299.266C298.917 94.9821 298.743 95.0973 298.743 95.3292V96.0181C298.743 96.2451 298.917 96.3579 299.266 96.3579H299.782C300.136 96.3579 300.313 96.2451 300.313 96.0181V95.3292C300.313 95.0973 300.136 94.9821 299.782 94.9821Z" fill="white"/>
  <path d="M306.277 98.95C307.094 98.95 307.685 99.2071 308.05 99.7217C308.082 99.7818 308.143 99.8108 308.227 99.8108C308.283 99.8108 308.344 99.7987 308.416 99.7759L309.304 99.4022C309.383 99.3552 309.424 99.3025 309.424 99.2381C309.424 99.1974 309.412 99.1543 309.387 99.1146C308.808 98.1784 307.773 97.6957 306.277 97.6691C303.846 97.7146 302.624 98.9713 302.614 101.441C302.624 103.882 303.846 105.125 306.277 105.171C307.773 105.143 308.808 104.662 309.387 103.725C309.412 103.683 309.424 103.643 309.424 103.601C309.424 103.539 309.383 103.484 309.304 103.437L308.416 103.064C308.344 103.04 308.283 103.029 308.227 103.029C308.143 103.029 308.082 103.059 308.05 103.118C307.685 103.63 307.094 103.887 306.277 103.887C304.951 103.887 304.268 103.073 304.229 101.441C304.268 99.7818 304.951 98.95 306.277 98.95Z" fill="white"/>
  <path d="M316.517 101.91C316.182 103.179 315.453 103.814 314.326 103.818C313.189 103.818 312.623 103.039 312.623 101.481C312.766 99.8629 313.528 99.0312 314.902 98.9852C315.679 98.9852 316.217 99.1421 316.517 99.4553V101.91ZM314.955 97.6951C312.652 97.7856 311.382 99.053 311.149 101.495C311.149 103.977 312.24 105.217 314.423 105.217C315.396 105.126 316.093 104.769 316.517 104.148V104.898C316.532 105.11 316.714 105.217 317.062 105.217H317.532C317.882 105.217 318.064 105.11 318.079 104.898V98.8753C317.615 98.0882 316.574 97.6951 314.955 97.6951Z" fill="white"/>
  <path d="M323.828 97.6951C322.857 97.7861 322.159 98.1443 321.735 98.7655V98.0233C321.72 97.8098 321.563 97.7028 321.263 97.7028H320.645C320.344 97.7028 320.189 97.8098 320.173 98.0233V104.898C320.189 105.11 320.371 105.217 320.72 105.217H321.191C321.538 105.217 321.72 105.11 321.735 104.898V101.003C322.068 99.7351 322.8 99.0976 323.925 99.0932C325.011 99.0932 325.556 99.8078 325.556 101.234V104.898C325.568 105.11 325.753 105.217 326.101 105.217H326.572C326.921 105.217 327.102 105.11 327.118 104.898V101.262H327.102C327.057 98.8841 325.968 97.6951 323.828 97.6951Z" fill="white"/>
  <path d="M334.475 101.91C334.14 103.179 333.412 103.814 332.284 103.818C331.148 103.818 330.58 103.039 330.58 101.481C330.726 99.8629 331.485 99.0312 332.861 98.9852C333.638 98.9852 334.176 99.1421 334.475 99.4553V101.91ZM332.914 97.6951C330.61 97.7856 329.341 99.053 329.108 101.495C329.108 103.977 330.198 105.217 332.383 105.217C333.354 105.126 334.052 104.769 334.475 104.148V104.898C334.49 105.11 334.671 105.217 335.021 105.217H335.493C335.84 105.217 336.022 105.11 336.037 104.898V98.8753C335.575 98.0882 334.532 97.6951 332.914 97.6951Z" fill="white"/>
  <path d="M175.38 86.0634L182.466 63.686L212.226 63.6836C213.45 63.67 214.495 62.9216 214.841 61.904L218.251 51.6184L187.222 51.6605C187.222 51.6605 186.622 51.5937 186.357 52.0289C186.274 52.1684 185.868 52.8316 185.868 52.8316C185.868 52.8316 189.255 42.1917 194.13 42.1917H219.295C220.523 42.1917 221.561 41.4563 221.92 40.4459L226.126 27.4454L195.404 27.4023C185.442 28.0622 178.169 35.6091 173.584 50.0392L161.378 87.9006H172.72C173.983 87.9006 175.053 87.1202 175.38 86.0634Z" fill="white"/>
  <path d="M248.315 64.4588H237.672C237.672 64.4588 237.205 64.4757 237.084 64.4757C236.611 64.4757 236.08 65.2552 236.08 65.2552L245.28 46.0638L249.774 63.3744C249.784 63.4199 250.007 64.4588 248.315 64.4588ZM267.83 86.4372L252.373 27.4451C251.872 27.4499 244.204 27.4451 243.228 27.4451C241.293 27.4451 240.603 28.2821 240.187 29.0427L211.816 87.9002H222.938C225.144 87.9002 225.524 87.0177 225.862 86.3351L232.352 72.9613L249.872 72.8921C251.962 72.8921 252.541 74.2133 252.541 74.2133L256.085 87.9002H265.442C265.442 87.9002 268.216 87.9002 267.83 86.4372Z" fill="white"/>
  <path d="M334.551 27.4443C331.757 27.4443 330.279 27.4443 328.616 30.2522L307.147 66.3887C307.147 66.3887 306.865 66.8462 306.785 66.9934C306.356 67.7776 306.407 68.8572 306.407 68.8572L298.988 27.4443H288.2C285.286 27.4443 283.158 27.4443 282.591 30.578L270.648 87.8995C272.044 87.855 277.986 87.8995 277.986 87.8995C283.014 87.8995 283.014 87.8995 283.636 84.807L290.692 50.7841L297.155 87.0789C301.263 87.0857 297.528 87.0857 301.263 87.0857H303.315C307.334 87.0789 307.334 87.0789 308.813 84.6433L328.721 51.0281L321.042 87.8995H328.753C333.334 87.8995 333.334 87.8995 334.051 84.7658L346 27.4443H334.551Z" fill="white"/>
  <path d="M68.9776 119.159C58.5265 119.159 48.664 116.892 39.9658 112.876H49.5699L54.9387 89.7729L56.5471 82.9623C56.5126 82.9657 56.1168 82.9948 55.6774 83.0325C47.6855 83.902 42.2137 86.0495 38.0782 89.9646C32.7211 95.0367 30.4615 101.824 29.4294 106.76C27.753 105.562 26.1477 104.289 24.6157 102.948C26.0262 97.8731 28.6227 91.8677 33.5866 87.1683C39.9823 81.113 49.148 78.8618 64.7492 78.8618C64.7492 78.8618 96.6048 78.8638 96.6297 78.8638C100.013 78.8638 101.207 78.8638 103.542 75.871L125.892 49.1244L85.3641 48.9613C73.6862 49.5151 62.4668 50.2606 50.4869 64.2337L40.4445 75.9692L49.9483 44.4599C33.8302 47.3646 27.9276 51.2923 23.3431 67.4478L16.6413 94.4713C9.54569 85.2488 5.38524 74.0618 5.38524 62C5.38524 30.4326 33.8562 4.84118 68.9776 4.84118C79.4997 4.84118 89.4227 7.14025 98.1644 11.2068L73.0414 11.1274C65.6763 11.0461 57.6727 11.1236 50.2757 20.3039C50.2757 20.3039 35.3623 38.4467 28.4816 49.4202C32.555 44.1211 41.7536 40.921 50.8854 40.6001L97.5005 40.5918L97.509 40.5914C99.1504 40.5914 100.494 40.5913 102.097 38.6844C102.098 38.6834 108.961 30.117 115.011 22.5657C125.89 32.8222 132.569 46.7101 132.569 62C132.569 93.5684 104.098 119.159 68.9776 119.159ZM118.206 18.5771C121.531 14.4267 124.045 11.2891 124.045 11.2891L108.588 11.2398C97.379 4.15954 83.719 0 68.9776 0C30.8823 0 0 27.7583 0 62C0 76.6431 5.65057 90.0982 15.0954 100.706L12.0627 112.936H22.8045C22.9202 112.228 23.0597 110.644 23.401 108.534C25.0572 109.846 26.784 111.087 28.576 112.252C28.5453 112.505 28.5171 112.718 28.4911 112.876H29.553C40.7279 119.886 54.3173 124 68.9776 124C107.072 124 137.955 96.2417 137.955 62C137.955 45.0893 130.419 29.7631 118.206 18.5771Z" fill="white"/>
</svg>